# xmcd
#
# Track frame offsets: 
#        150
#        17401
#        39797
#        55292
#        71929
#        96669
#        117048
#        136381
#        150801
#        173069
#        192980
#        210400
#        226750
#        247882
#        266178
#        284486
#
# Disc length: 4015 seconds
#
# Revision: 2
# Processed by: cddbd v1.5.1PL2 Copyright (c) Steve Scherf et al.
# Submitted via: ExactAudioCopy v0.95b3
#
DISCID=d70fad10
DTITLE=Александр Буйнов - Любовь на двоих
DYEAR=1900
DGENRE=Blues
TTITLE0=Любовь на двоих
TTITLE1=Танго
TTITLE2=Не сердись
TTITLE3=Черный карандаш
TTITLE4=Блюз-интим
TTITLE5=Холод и лед
TTITLE6=Оранжевые сны
TTITLE7=Эй, друг
TTITLE8=Вот и кончилось лето
TTITLE9=Ну и что
TTITLE10=Песня о друге
TTITLE11=Shut up!
TTITLE12=Еще раз про любовь
TTITLE13=Дороги
TTITLE14=Маня на диване
TTITLE15=Это был я
EXTD=
EXTT0=
EXTT1=
EXTT2=
EXTT3=
EXTT4=
EXTT5=
EXTT6=
EXTT7=
EXTT8=
EXTT9=
EXTT10=
EXTT11=
EXTT12=
EXTT13=
EXTT14=
EXTT15=
PLAYORDER=
